<svg xmlns="http://www.w3.org/2000/svg" fill="none" viewBox="0 0 24 24" id="Auto-Stories-Alt--Streamline-Outlined-Expansion" height="24" width="24"><desc>Auto Stories Alt Streamline Icon: https://streamlinehq.com</desc><g id="auto-stories-alt"><path id="Union" fill="#000000" d="M12 20c0.8 -0.6333 1.6667 -1.125 2.6 -1.475 0.9333 -0.35 1.9 -0.525 2.9 -0.525 0.7 0 1.3875 0.0917 2.0625 0.275 0.675 0.1833 1.3208 0.4417 1.9375 0.775 0.35 0.1833 0.6875 0.175 1.0125 -0.025 0.325 -0.2 0.4875 -0.4917 0.4875 -0.875V6.1c0 -0.18333 -0.0458 -0.35833 -0.1375 -0.525 -0.0917 -0.16667 -0.2292 -0.29167 -0.4125 -0.375 -0.7667 -0.4 -1.5667 -0.7 -2.4 -0.9 -0.8333 -0.2 -1.6833 -0.3 -2.55 -0.3 -0.9667 0 -1.9125 0.125 -2.8375 0.375C13.7375 4.625 12.85 5 12 5.5v12.1c-0.85 -0.5333 -1.7417 -0.9333 -2.675 -1.2 -0.93333 -0.2667 -1.875 -0.4 -2.825 -0.4 -0.6 0 -1.1875 0.05 -1.7625 0.15 -0.575 0.1 -1.15417 0.25 -1.7375 0.45v-12c-0.25 0.08333 -0.49583 0.17083 -0.7375 0.2625 -0.24167 0.09167 -0.47917 0.20417 -0.7125 0.3375 -0.18333 0.08333 -0.32083 0.20833 -0.4125 0.375C1.04583 5.74167 1 5.91667 1 6.1v12.05c0 0.3833 0.1625 0.675 0.4875 0.875 0.325 0.2 0.6625 0.2083 1.0125 0.025 0.61667 -0.3333 1.2625 -0.5917 1.9375 -0.775C5.1125 18.0917 5.8 18 6.5 18c1 0 1.96667 0.175 2.9 0.525 0.9333 0.35 1.8 0.8417 2.6 1.475Zm-2 -5V5.5l-5 -5v10l5 4.5Zm4 1.625v-9.9c0.55 -0.23333 1.1208 -0.4125 1.7125 -0.5375C16.3042 6.0625 16.9 6 17.5 6c0.6167 0 1.2167 0.05833 1.8 0.175 0.5833 0.11667 1.15 0.29167 1.7 0.525v9.925c-0.5833 -0.2167 -1.1625 -0.375 -1.7375 -0.475 -0.575 -0.1 -1.1625 -0.15 -1.7625 -0.15 -0.6 0 -1.1875 0.05 -1.7625 0.15 -0.575 0.1 -1.1542 0.2583 -1.7375 0.475Z" stroke-width="1"></path></g></svg>