<svg xmlns="http://www.w3.org/2000/svg" fill="none" viewBox="0 0 24 24" id="Movie-Play--Streamline-Outlined-Expansion" height="24" width="24"><desc>Movie Play Streamline Icon: https://streamlinehq.com</desc><g id="movie-play"><path id="Union" fill="#000000" fill-rule="evenodd" d="M9 8H6L4 4c-0.55 0 -1.02083 0.19583 -1.4125 0.5875C2.19583 4.97917 2 5.45 2 6v12c0 0.55 0.19583 1.0208 0.5875 1.4125C2.97917 19.8042 3.45 20 4 20h16c0.55 0 1.0208 -0.1958 1.4125 -0.5875C21.8042 19.0208 22 18.55 22 18V6c0 -0.55 -0.1958 -1.02083 -0.5875 -1.4125C21.0208 4.19583 20.55 4 20 4h-3l2 4h-3l-2 -4h-2l2 4h-3L9 4H7l2 4ZM4 18v-8h16v8H4Zm10.5 -4 -4 -2.5v5l4 -2.5Z" clip-rule="evenodd" stroke-width="1"></path></g></svg>