<svg xmlns="http://www.w3.org/2000/svg" fill="none" viewBox="0 0 24 24" id="Bus-Stop--Streamline-Outlined-Expansion" height="24" width="24"><desc>Bus Stop Streamline Icon: https://streamlinehq.com</desc><g id="bus-stop"><path id="Union" fill="#000000" fill-rule="evenodd" d="M8 2H2v8h2v12h2V10h2V2Zm7.5 4c-2.0379 0 -3.6075 0.32149 -4.6214 0.61791C9.65203 6.97653 9 8.11549 9 9.23607V17.5c0 0.8885 0.38625 1.6868 1 2.2361V21c0 0.5523 0.4477 1 1 1s1 -0.4477 1 -1v-0.5h7v0.5c0 0.5523 0.4477 1 1 1s1 -0.4477 1 -1v-1.2639c0.6137 -0.5493 1 -1.3476 1 -2.2361V9.23607c0 -1.12058 -0.652 -2.25954 -1.8786 -2.61816C19.1075 6.32149 17.5379 6 15.5 6Zm-4.0601 2.53754C12.2936 8.28792 13.6739 8 15.5 8c1.8261 0 3.2064 0.28792 4.0601 0.53754 0.2276 0.06655 0.4399 0.30402 0.4399 0.69853V9.25h-9v-0.01393c0 -0.39451 0.2123 -0.63198 0.4399 -0.69853ZM11 10.75v2.5h9v-2.5h-9Zm0 4v2.75c0 0.5523 0.4477 1 1 1h7c0.5523 0 1 -0.4477 1 -1v-2.75h-9Zm3 1.75c0 0.5523 -0.4477 1 -1 1s-1 -0.4477 -1 -1 0.4477 -1 1 -1 1 0.4477 1 1Zm4 1c0.5523 0 1 -0.4477 1 -1s-0.4477 -1 -1 -1 -1 0.4477 -1 1 0.4477 1 1 1Z" clip-rule="evenodd" stroke-width="1"></path></g></svg>